Simulation
nRows=48
nColumns=15
endheader
time  TH_x TH_y TH_z SC_y  SC_z  SC_x  AC_y  AC_z  AC_x  GH_y  GH_z  GH_yy  EL_x  PS_y
5.745  0.000000  0.000000  0.000000  -49.646854400835245  18.759449501658263  31.914443893745013  72.98701103396105  -5.902699329234811  26.64600461054812  -7.998555443321881  62.79457552157585  -14.980832611527484  18.45636913732022  120.000000
5.80245  0.000000  0.000000  0.000000  -48.410993250613664  17.53093017607418  28.046631444861774  73.2446205306628  -5.77787283581859  26.745161270421157  -8.361335066100585  62.37026277595218  -14.236213215836772  18.75037668356466  120.000000
5.8599  0.000000  0.000000  0.000000  -46.99387187092309  15.836685284976461  23.418378361359864  73.42999351369876  -5.627541131996445  26.897591286142315  -8.957171344756796  61.83946389720481  -12.918858721568293  19.134382681681473  120.000000
5.91735  0.000000  0.000000  0.000000  -45.519876648557414  13.638098384273986  18.253747934405045  73.43069264765978  -5.5131207237165745  27.051901574462235  -9.75612246861278  61.281759332100506  -11.004386363248676  19.52484480337915  120.000000
5.9748  0.000000  0.000000  0.000000  -44.116878450414205  10.929255537176827  12.810254541692366  73.13448373109507  -5.511678081262212  27.136846436821294  -10.675116505323748  60.77432587435981  -8.546554961486022  19.829375510458977  120.000000
6.03225  0.000000  0.000000  0.000000  -42.86156265209853  7.753462881226018  7.367070514292203  72.45498657875164  -5.69969547564214  27.071891414820197  -11.633407506413393  60.36130621051301  -5.681160859160957  19.967802952592784  120.000000
6.089700000000001  0.000000  0.000000  0.000000  -41.71684226116855  4.22068437842308  2.2241165022719134  71.34813086643085  -6.132853693358831  26.781656430426622  -12.626772467341134  60.01693227875071  -2.5963233787353235  19.882572096855448  120.000000
6.14715  0.000000  0.000000  0.000000  -40.53197531526646  0.541355125234611  -2.297650376554469  69.8304158685548  -6.831790904129317  26.213357036580778  -13.721901541638447  59.60739154526008  0.5034816422537673  19.540217252454717  120.000000
6.2046  0.000000  0.000000  0.000000  -39.140439356890546  -2.9653204172203105  -5.883426883323603  67.98615030830561  -7.766586610767096  25.343503013494676  -14.92971469630675  58.89956098209259  3.4152283723703616  18.938428978121884  120.000000
6.26205  0.000000  0.000000  0.000000  -37.582944302456475  -5.893941686686069  -8.314887963006543  65.96886009262606  -8.869398461353255  24.189138798561036  -16.027731773037345  57.61515253611967  5.935756880533125  18.148089506387112  120.000000
6.3195  0.000000  0.000000  0.000000  -36.140260376506646  -7.876220928277131  -9.529935032856908  63.95702527280805  -10.061820531143342  22.778231123466433  -16.628638944692295  55.51770378269108  7.905649776378032  17.31329990757123  120.000000
6.37695  0.000000  0.000000  0.000000  -35.046790521324446  -8.710820732395234  -9.565960872208544  62.10224052593135  -11.305107751345  21.14928764962697  -16.4798864261022  52.5171059388997  9.262032780543175  16.541042132357852  120.000000
6.4344  0.000000  0.000000  0.000000  -34.36259523642553  -8.444283040603775  -8.57836691205911  60.445948979072924  -12.465466971810649  19.29489532276027  -15.520978195071063  48.61473908887663  10.02079585054143  15.880040817345424  120.000000
6.49185  0.000000  0.000000  0.000000  -34.03627808100101  -7.393142161673232  -6.911566168090808  58.90639869389928  -13.156231659045408  17.09851769697501  -13.658218501982555  43.80989561140834  10.151942992942674  15.38101435982375  120.000000
6.549300000000001  0.000000  0.000000  0.000000  -33.94221939774626  -5.948136900165645  -5.003079949702423  57.3922521974207  -13.024892806414481  14.542340449590219  -10.66953357802822  38.22663136847693  9.47999614620671  15.098836858102043  120.000000
6.60675  0.000000  0.000000  0.000000  -33.96974314925057  -4.380859076698157  -3.2637075864432483  55.82837959639656  -12.001759025321498  11.834429719517635  -6.212295038798685  32.20566631784207  7.670713673025338  15.066393323254758  120.000000
6.6642  0.000000  0.000000  0.000000  -34.12561894644058  -2.8805082458450375  -2.0239720993815933  54.160094883867586  -10.21797586700689  9.237886276939868  0.24421856001846443  26.27386200404868  4.160103264670104  15.26968791855619  120.000000
6.72165  0.000000  0.000000  0.000000  -34.45296090659924  -1.610191575992628  -1.4656384383047514  52.362507880798205  -7.8819959074227075  6.925411545921114  9.300854897452444  21.01839950234248  -1.7395301321899872  15.646256940003491  120.000000
6.7791  0.000000  0.000000  0.000000  -34.964950620163435  -0.6365350976323106  -1.5858412532150308  50.48181438488613  -5.226281916027638  4.998231980496419  21.39036265384787  16.897879918712228  -10.575211180874918  16.113098421552888  120.000000
6.83655  0.000000  0.000000  0.000000  -35.65928475740268  0.03622814381958357  -2.235944148458295  48.6166084577061  -2.467790803968971  3.505843077601571  36.25824670245919  14.157459849517437  -22.188310287636636  16.59218690774631  120.000000
6.894  0.000000  0.000000  0.000000  -36.4966372120201  0.44911952889910767  -3.2281867596608107  46.84238582339257  0.24060946410079023  2.4477287341037957  52.15387697218146  12.739281965575119  -34.87782928509133  17.014873235553925  120.000000
6.95145  0.000000  0.000000  0.000000  -37.420854496336524  0.6761072877189069  -4.398078871664872  45.209143638800775  2.805903146187597  1.7702688465904313  66.57923015153327  12.289412703425066  -46.21379889474001  17.31686793184712  120.000000
7.008900000000001  0.000000  0.000000  0.000000  -38.36628167742264  0.7858040028892953  -5.61214671149706  43.766755617758875  5.150921396858117  1.4025623305039099  78.16833241989566  12.366554099995774  -54.93664800582531  17.45584645650396  120.000000
7.06635  0.000000  0.000000  0.000000  -39.28015190992057  0.8265746272527701  -6.7715251395962595  42.55672623243933  7.206525483760942  1.2944237019933684  86.97793359931465  12.63606188658108  -61.21662389364461  17.446004926530616  120.000000
7.1238  0.000000  0.000000  0.000000  -40.1348282373262  0.828121175599809  -7.811023409262283  41.623276452492796  8.936799413810876  1.3933302040708773  93.57156628786018  12.909033765444978  -65.72040339488667  17.348295548978566  120.000000
7.18125  0.000000  0.000000  0.000000  -40.92376527154491  0.8241349719764348  -8.68919962802626  41.0033867739307  10.342860160096091  1.6327228709541186  98.47606370758328  13.09318400634843  -69.04025108745242  17.243771700747477  120.000000
7.2387  0.000000  0.000000  0.000000  -41.65576430520269  0.8445377832885749  -9.37446903597967  40.68634581308576  11.442723048143636  1.953876097784618  102.12141141562232  13.142240671433715  -71.61096420673792  17.20189124880218  120.000000
7.29615  0.000000  0.000000  0.000000  -42.33165394095376  0.904184135136009  -9.844804791558122  40.60675455922591  12.253783586980598  2.3203039682716593  104.90934428667985  13.045044263224819  -73.77114195073015  17.259728609047862  120.000000
7.3536  0.000000  0.000000  0.000000  -42.94351362606282  0.9932733108861947  -10.094553616181285  40.669871321585404  12.799684292719405  2.702486585141615  107.1690744244121  12.823060450288178  -75.75179095980974  17.4124968671568  120.000000
7.41105  0.000000  0.000000  0.000000  -43.47542451598538  1.1025303924588397  -10.13895798869418  40.808976707841175  13.115448333604482  3.058646539344457  109.08547446694959  12.524381564220995  -77.6333198465734  17.62708537184436  120.000000
7.468500000000001  0.000000  0.000000  0.000000  -43.911952585143496  1.2407826259574954  -10.00770712372603  40.99415386081527  13.239627335862137  3.341775736212997  110.72279312342079  12.20624057064536  -79.38595124967281  17.867491803934424  120.000000
7.52595  0.000000  0.000000  0.000000  -44.25341046418045  1.4154805362186376  -9.731592056561801  41.19853022682036  13.209198386746664  3.515479957274765  112.08875411551924  11.907958069893603  -80.94485432007289  18.106638909244648  120.000000
7.5834  0.000000  0.000000  0.000000  -44.51535350368434  1.6253435030142274  -9.334444454364402  41.390390915077475  13.055371308914516  3.56126447976406  113.1958683632897  11.6439051316339  -82.2749802237521  18.331455682814  120.000000
7.64085  0.000000  0.000000  0.000000  -44.716105888101566  1.8655934328292918  -8.832528534982918  41.54592710155518  12.800861782824008  3.4777313908943626  114.09209093802752  11.411430989008862  -83.39497444503476  18.542316454041714  120.000000
7.6983  0.000000  0.000000  0.000000  -44.87225789143953  2.131004246778607  -8.237359868647887  41.65775081626076  12.460796718529945  3.27670237395109  114.85262222181713  11.203588412698327  -84.36874499455921  18.74604598017085  120.000000
7.75575  0.000000  0.000000  0.000000  -44.998532625889425  2.415970069225791  -7.557711776727422  41.73438769600897  12.044015503283479  2.9800116589536683  115.55856551748032  11.014490492886573  -85.27869731766705  18.948637236953736  120.000000
7.8132  0.000000  0.000000  0.000000  -45.1066702594655  2.7160141202145613  -6.801801971409337  41.7958204187256  11.554336875895284  2.6169566678341694  116.28387986423041  10.840100862617373  -86.20647505526061  19.15244516190171  120.000000
7.87065  0.000000  0.000000  0.000000  -45.20858084878773  3.0265761724096634  -5.979023110145396  41.86836224048295  10.99264796628236  2.2210705870737355  117.07664544427138  10.676279151229965  -87.20996454747328  19.35613490070153  120.000000
7.928100000000001  0.000000  0.000000  0.000000  -45.31679804164968  3.3408316941693212  -5.100541696820099  41.97667567686841  10.360103459258163  1.826281040630278  117.95743430066827  10.514158043134204  -88.31722782020566  19.557834204772206  120.000000
7.98555  0.000000  0.000000  0.000000  -45.44282434148705  3.65139385775683  -4.180760834263416  42.14102671369831  9.661917061020239  1.4603983490259647  118.91654767054983  10.339869642023448  -89.5208393170355  19.759472517688604  120.000000
8.043  0.000000  0.000000  0.000000  -45.59359502210246  3.948927869770092  -3.238437694819597  42.37022195484821  8.911379906930595  1.1389514113388883  119.92111801613864  10.134159822115079  -90.78349776187162  19.96913534228924  120.000000
8.10045  0.000000  0.000000  0.000000  -45.76835669856726  4.223706753278343  -2.2981218300906763  42.65273680167167  8.131568163104777  0.8613118111919907  120.92558106400337  9.874603788784302  -92.05057850059315  20.198485876445588  120.000000
8.1579  0.000000  0.000000  0.000000  -45.95381535520637  4.468944185240787  -1.3929297519036106  42.95465244489528  7.3549511083581995  0.6095317474290298  121.8695827654573  9.539416849203088  -93.2543884158135  20.454857280575485  120.000000
8.21535  0.000000  0.000000  0.000000  -46.12115562702699  4.676568992660475  -0.5671127062202513  43.22384971440099  6.618728454633079  0.35428664337958754  122.65461986697542  9.112835355174012  -94.30114205077855  20.729125645538936  120.000000
8.2728  0.000000  0.000000  0.000000  -46.22368168587403  4.832278591024535  0.12490978061198896  43.4028830049098  5.954566214612057  0.06637995733576957  123.10003492190562  8.59270942742329  -95.03589814992132  20.988641966565247  120.000000
8.33025  0.000000  0.000000  0.000000  -46.20350663349557  4.910674401593491  0.629760766479233  43.436210259847435  5.376017754098352  -0.27479223461331986  122.88253965058945  7.991500477225086  -95.18280501198244  21.180415408437504  120.000000
8.3877  0.000000  0.000000  0.000000  -45.995238636631875  4.8821677655434375  0.8984456266624558  43.28469977108635  4.881815160717991  -0.6831768945874934  121.43784187800638  7.3414908025200765  -94.2349523056967  21.25002092193932  120.000000
8.44515  0.000000  0.000000  0.000000  -45.52953235260347  4.7220674888355205  0.8846940251593902  42.93429525040852  4.470227933507247  -1.1679587060984131  117.89527266394695  6.706335552261201  -91.36665312183158  21.170438180164062  120.000000
